<svg width="54" height="54" viewBox="0 0 54 54" fill="none" xmlns="http://www.w3.org/2000/svg">
<g id="noun-dithering-6747845 1">
<path id="Vector" d="M7.59195 13.5C7.12791 13.5063 6.75454 13.8839 6.75666 14.348V39.6605C6.76299 40.1182 7.13213 40.4895 7.59195 40.4937H46.409H46.4069C46.8709 40.4958 47.2485 40.1225 47.2548 39.6605V14.348C47.2548 14.1223 47.1662 13.9071 47.008 13.7468C46.8477 13.5886 46.6326 13.5 46.4069 13.5L7.59195 13.5ZM20.2523 15.1812H21.9398V16.8687H23.6273V15.1812H27.0023V16.8687H28.6898V15.1812H33.7523V16.8687H35.4398V15.1812H45.5603V38.8125H32.0648V37.125H30.3773V38.8125H25.3148V37.125H23.6273V38.8125H21.9398V37.125H20.2523V38.8125H18.5648V37.125H20.2523V35.4375H18.5648V33.75H20.2523V32.0625H18.5648V30.375H20.2523V28.6875H18.5648V27H20.2523V25.3125H18.5648V23.625H20.2523V21.9375H18.5648V20.25H20.2523V18.5625H18.5648V16.8686H20.2523V15.1812Z" fill="#0D8CF3"/>
<path id="Vector_2" d="M20.25 16.875H21.9375V18.5625H20.25V16.875Z" fill="#0D8CF3"/>
<path id="Vector_3" d="M20.25 20.25H21.9375V21.9375H20.25V20.25Z" fill="#0D8CF3"/>
<path id="Vector_4" d="M20.25 23.625H21.9375V25.3125H20.25V23.625Z" fill="#0D8CF3"/>
<path id="Vector_5" d="M20.25 27H21.9375V28.6875H20.25V27Z" fill="#0D8CF3"/>
<path id="Vector_6" d="M20.25 30.375H21.9375V32.0625H20.25V30.375Z" fill="#0D8CF3"/>
<path id="Vector_7" d="M20.25 33.75H21.9375V35.4375H20.25V33.75Z" fill="#0D8CF3"/>
<path id="Vector_8" d="M21.9375 21.9375H23.625V23.625H21.9375V21.9375Z" fill="#0D8CF3"/>
<path id="Vector_9" d="M21.9375 28.6875H23.625V30.375H21.9375V28.6875Z" fill="#0D8CF3"/>
<path id="Vector_10" d="M21.9375 35.4375H23.625V37.125H21.9375V35.4375Z" fill="#0D8CF3"/>
<path id="Vector_11" d="M21.9375 18.5625H23.625V20.25H21.9375V18.5625Z" fill="#0D8CF3"/>
<path id="Vector_12" d="M21.9375 25.3125H23.625V27H21.9375V25.3125Z" fill="#0D8CF3"/>
<path id="Vector_13" d="M21.9375 32.0625H23.625V33.75H21.9375V32.0625Z" fill="#0D8CF3"/>
<path id="Vector_14" d="M23.625 16.875H25.3125V18.5625H23.625V16.875Z" fill="#0D8CF3"/>
<path id="Vector_15" d="M23.625 23.625H25.3125V25.3125H23.625V23.625Z" fill="#0D8CF3"/>
<path id="Vector_16" d="M23.625 30.375H25.3125V32.0625H23.625V30.375Z" fill="#0D8CF3"/>
<path id="Vector_17" d="M23.625 20.25H25.3125V21.9375H23.625V20.25Z" fill="#0D8CF3"/>
<path id="Vector_18" d="M23.625 27H25.3125V28.6875H23.625V27Z" fill="#0D8CF3"/>
<path id="Vector_19" d="M23.625 33.75H25.3125V35.4375H23.625V33.75Z" fill="#0D8CF3"/>
<path id="Vector_20" d="M27 18.5625H28.6875V20.25H27V18.5625Z" fill="#0D8CF3"/>
<path id="Vector_21" d="M27 21.9375H28.6875V23.625H27V21.9375Z" fill="#0D8CF3"/>
<path id="Vector_22" d="M27 25.3125H28.6875V27H27V25.3125Z" fill="#0D8CF3"/>
<path id="Vector_23" d="M27 28.6875H28.6875V30.375H27V28.6875Z" fill="#0D8CF3"/>
<path id="Vector_24" d="M27 32.0625H28.6875V33.75H27V32.0625Z" fill="#0D8CF3"/>
<path id="Vector_25" d="M27 35.4375H28.6875V37.125H27V35.4375Z" fill="#0D8CF3"/>
<path id="Vector_26" d="M30.375 16.875H32.0625V18.5625H30.375V16.875Z" fill="#0D8CF3"/>
<path id="Vector_27" d="M30.375 20.25H32.0625V21.9375H30.375V20.25Z" fill="#0D8CF3"/>
<path id="Vector_28" d="M30.375 23.625H32.0625V25.3125H30.375V23.625Z" fill="#0D8CF3"/>
<path id="Vector_29" d="M30.375 27H32.0625V28.6875H30.375V27Z" fill="#0D8CF3"/>
<path id="Vector_30" d="M30.375 30.375H32.0625V32.0625H30.375V30.375Z" fill="#0D8CF3"/>
<path id="Vector_31" d="M30.375 33.75H32.0625V35.4375H30.375V33.75Z" fill="#0D8CF3"/>
<path id="Vector_32" d="M33.75 18.5625H35.4375V20.25H33.75V18.5625Z" fill="#0D8CF3"/>
<path id="Vector_33" d="M33.75 21.9375H35.4375V23.625H33.75V21.9375Z" fill="#0D8CF3"/>
<path id="Vector_34" d="M33.75 25.3125H35.4375V27H33.75V25.3125Z" fill="#0D8CF3"/>
<path id="Vector_35" d="M33.75 28.6875H35.4375V30.375H33.75V28.6875Z" fill="#0D8CF3"/>
<path id="Vector_36" d="M33.75 32.0625H35.4375V33.75H33.75V32.0625Z" fill="#0D8CF3"/>
<path id="Vector_37" d="M33.75 35.4375H35.4375V37.125H33.75V35.4375Z" fill="#0D8CF3"/>
</g>
</svg>
